<svg width="99" height="76" viewBox="0 0 99 76" fill="none" xmlns="http://www.w3.org/2000/svg">
<circle cx="67.2117" cy="46.8128" r="7.80299" stroke="black" stroke-width="3" stroke-linecap="round" stroke-linejoin="round"/>
<path d="M49.0052 29.7063C48.1768 29.7063 47.5052 30.3779 47.5052 31.2063C47.5052 32.0347 48.1768 32.7063 49.0052 32.7063V29.7063ZM67.2122 24.9033C68.0406 24.9033 68.7122 24.2317 68.7122 23.4033C68.7122 22.5749 68.0406 21.9033 67.2122 21.9033V24.9033ZM92.1212 41.6109C92.1212 40.7825 91.4496 40.1109 90.6212 40.1109C89.7928 40.1109 89.1212 40.7825 89.1212 41.6109H92.1212ZM49.0052 32.7069C49.8336 32.7069 50.5052 32.0353 50.5052 31.2069C50.5052 30.3785 49.8336 29.7069 49.0052 29.7069V32.7069ZM49.0052 32.7063H54.2072V29.7063H49.0052V32.7063ZM54.2072 32.7063C57.9086 32.7063 60.9092 29.7057 60.9092 26.0043H57.9092C57.9092 28.0489 56.2517 29.7063 54.2072 29.7063V32.7063ZM60.9092 26.0043C60.9092 25.3963 61.4021 24.9033 62.0102 24.9033V21.9033C59.7453 21.9033 57.9092 23.7394 57.9092 26.0043H60.9092ZM62.0102 24.9033H67.2122V21.9033H62.0102V24.9033ZM89.1212 41.6109V59.8179H92.1212V41.6109H89.1212ZM89.1212 59.8179C89.1212 61.8624 87.4637 63.5199 85.4192 63.5199V66.5199C89.1206 66.5199 92.1212 63.5193 92.1212 59.8179H89.1212ZM85.4192 63.5199H49.0052V66.5199H85.4192V63.5199ZM49.0052 63.5199C46.9607 63.5199 45.3032 61.8624 45.3032 59.8179H42.3032C42.3032 63.5193 45.3038 66.5199 49.0052 66.5199V63.5199ZM45.3032 59.8179V36.4089H42.3032V59.8179H45.3032ZM45.3032 36.4089C45.3032 34.3643 46.9607 32.7069 49.0052 32.7069V29.7069C45.3038 29.7069 42.3032 32.7075 42.3032 36.4089H45.3032Z" fill="black"/>
<path d="M75.0146 28.6052H90.6206" stroke="black" stroke-width="3" stroke-linecap="round" stroke-linejoin="round"/>
<path d="M82.8181 20.8037V36.4097" stroke="black" stroke-width="3" stroke-linecap="round" stroke-linejoin="round"/>
<path d="M7.80273 54.6215V44.2175C7.80273 38.4715 12.4608 33.8135 18.2067 33.8135C23.9527 33.8135 28.6107 38.4715 28.6107 44.2175C28.6107 49.9634 23.9527 54.6215 18.2067 54.6215H7.80273" stroke="black" stroke-width="3" stroke-linecap="round" stroke-linejoin="round"/>
<path d="M54.6209 7.80371C39.4977 9.87229 26.7205 20.0541 21.3281 34.3339" stroke="black" stroke-width="3" stroke-linecap="round" stroke-linejoin="round"/>
<path d="M54.621 7.80371C52.5524 22.9269 42.3706 35.7041 28.0908 41.0965" stroke="black" stroke-width="3" stroke-linecap="round" stroke-linejoin="round"/>
<path d="M27.5708 23.4092C32.625 25.7419 36.6824 29.7994 39.0152 34.8536" stroke="black" stroke-width="3" stroke-linecap="round" stroke-linejoin="round"/>
</svg>
