<svg width="91" height="91" viewBox="0 0 91 91" fill="none" xmlns="http://www.w3.org/2000/svg">
<path d="M85.2221 23.4099L59.2121 13.0059L33.2021 23.4099L59.2121 33.8138L85.2221 23.4099V39.0158" stroke="black" stroke-width="3" stroke-linecap="round" stroke-linejoin="round"/>
<path d="M43.606 27.5703V41.6157C43.606 45.9252 50.593 49.4187 59.2119 49.4187C67.8309 49.4187 74.8179 45.9252 74.8179 41.6157V27.5703" stroke="black" stroke-width="3" stroke-linecap="round" stroke-linejoin="round"/>
<path d="M7.80322 57.7129C6.9748 57.7129 6.30322 58.3845 6.30322 59.2129C6.30322 60.0413 6.9748 60.7129 7.80322 60.7129V57.7129ZM10.4042 60.7129C11.2326 60.7129 11.9042 60.0413 11.9042 59.2129C11.9042 58.3845 11.2326 57.7129 10.4042 57.7129V60.7129ZM32.7124 35.8037C32.7124 34.9753 32.0408 34.3037 31.2124 34.3037C30.384 34.3037 29.7124 34.9753 29.7124 35.8037H32.7124ZM29.7124 38.4047C29.7124 39.2331 30.384 39.9047 31.2124 39.9047C32.0408 39.9047 32.7124 39.2331 32.7124 38.4047H29.7124ZM52.0199 57.7129C51.1915 57.7129 50.5199 58.3845 50.5199 59.2129C50.5199 60.0413 51.1915 60.7129 52.0199 60.7129V57.7129ZM54.6209 60.7129C55.4494 60.7129 56.1209 60.0413 56.1209 59.2129C56.1209 58.3845 55.4494 57.7129 54.6209 57.7129V60.7129ZM15.6265 41.5056C15.0407 40.9199 14.0909 40.9199 13.5052 41.5056C12.9194 42.0914 12.9194 43.0412 13.5052 43.627L15.6265 41.5056ZM15.3259 45.4477C15.9116 46.0334 16.8614 46.0334 17.4472 45.4477C18.033 44.8619 18.033 43.9121 17.4472 43.3263L15.3259 45.4477ZM7.80322 60.7129H10.4042V57.7129H7.80322V60.7129ZM29.7124 35.8037V38.4047H32.7124V35.8037H29.7124ZM52.0199 60.7129H54.6209V57.7129H52.0199V60.7129ZM13.5052 43.627L15.3259 45.4477L17.4472 43.3263L15.6265 41.5056L13.5052 43.627Z" fill="black"/>
<path d="M23.4089 69.616C18.9307 66.2574 17.1041 60.41 18.8743 55.0995C20.6444 49.789 25.6141 46.207 31.2119 46.207C36.8096 46.207 41.7793 49.789 43.5495 55.0995C45.3197 60.41 43.4931 66.2574 39.0149 69.616C36.9553 71.6548 35.9895 74.5523 36.4139 77.419C36.4139 80.292 34.0849 82.621 31.2119 82.621C28.3389 82.621 26.0099 80.292 26.0099 77.419C26.4343 74.5523 25.4685 71.6548 23.4089 69.616" stroke="black" stroke-width="3" stroke-linecap="round" stroke-linejoin="round"/>
<path d="M25.2295 72.2175H37.1941" stroke="black" stroke-width="3" stroke-linecap="round" stroke-linejoin="round"/>
</svg>
