<svg width="140" height="140" viewBox="0 0 140 140" fill="none" xmlns="http://www.w3.org/2000/svg">
<path d="M79.2566 45.518L79.5686 46.8993L80.766 46.1432L116.288 23.7118L93.8568 59.234L93.1007 60.4314L94.482 60.7434L135.461 70L94.482 79.2566L93.1007 79.5686L93.8568 80.766L116.288 116.288L80.766 93.8568L79.5686 93.1007L79.2566 94.482L70 135.461L60.7434 94.482L60.4314 93.1007L59.234 93.8568L23.7118 116.288L46.1432 80.766L46.8993 79.5686L45.518 79.2566L4.53858 70L45.518 60.7434L46.8993 60.4314L46.1432 59.234L23.7118 23.7118L59.234 46.1432L60.4314 46.8993L60.7434 45.518L70 4.53858L79.2566 45.518Z" fill="white" stroke="black" stroke-width="2"/>
</svg>
